<?xml version="1.0" encoding="UTF-8" standalone="no"?>
<!DOCTYPE svg PUBLIC "-//W3C//DTD SVG 1.1//EN"
 "http://www.w3.org/Graphics/SVG/1.1/DTD/svg11.dtd">
<!-- Generated by graphviz version 2.38.0 (20140413.2041)
 -->
<!-- Title: G Pages: 1 -->
<svg width="777pt" height="2227pt"
 viewBox="0.00 0.00 777.32 2227.00" xmlns="http://www.w3.org/2000/svg" xmlns:xlink="http://www.w3.org/1999/xlink">
<g id="graph0" class="graph" transform="scale(1 1) rotate(0) translate(4 2223)">
<title>G</title>
<polygon fill="white" stroke="none" points="-4,4 -4,-2223 773.316,-2223 773.316,4 -4,4"/>
<g id="clust1" class="cluster"><title>cluster_Global</title>
<path fill="none" stroke="gray" d="M20,-44C20,-44 749.316,-44 749.316,-44 755.316,-44 761.316,-50 761.316,-56 761.316,-56 761.316,-2199 761.316,-2199 761.316,-2205 755.316,-2211 749.316,-2211 749.316,-2211 20,-2211 20,-2211 14,-2211 8,-2205 8,-2199 8,-2199 8,-56 8,-56 8,-50 14,-44 20,-44"/>
<text text-anchor="middle" x="384.658" y="-2198.2" font-family="Times,serif" font-size="11.00" fill="gray">Global</text>
</g>
<g id="clust2" class="cluster"><title>cluster_\Prismic</title>
<path fill="none" stroke="gray" d="M28,-52C28,-52 741.316,-52 741.316,-52 747.316,-52 753.316,-58 753.316,-64 753.316,-64 753.316,-2172 753.316,-2172 753.316,-2178 747.316,-2184 741.316,-2184 741.316,-2184 28,-2184 28,-2184 22,-2184 16,-2178 16,-2172 16,-2172 16,-64 16,-64 16,-58 22,-52 28,-52"/>
<text text-anchor="middle" x="384.658" y="-2171.2" font-family="Times,serif" font-size="11.00" fill="gray">Prismic</text>
</g>
<g id="clust3" class="cluster"><title>cluster_\Prismic\Fragment</title>
<path fill="none" stroke="gray" d="M36,-887C36,-887 733.316,-887 733.316,-887 739.316,-887 745.316,-893 745.316,-899 745.316,-899 745.316,-2101 745.316,-2101 745.316,-2107 739.316,-2113 733.316,-2113 733.316,-2113 36,-2113 36,-2113 30,-2113 24,-2107 24,-2101 24,-2101 24,-899 24,-899 24,-893 30,-887 36,-887"/>
<text text-anchor="middle" x="384.658" y="-2100.2" font-family="Times,serif" font-size="11.00" fill="gray">Fragment</text>
</g>
<g id="clust4" class="cluster"><title>cluster_\Prismic\Fragment\Block</title>
<path fill="none" stroke="gray" d="M236.218,-1853C236.218,-1853 725.316,-1853 725.316,-1853 731.316,-1853 737.316,-1859 737.316,-1865 737.316,-1865 737.316,-2074 737.316,-2074 737.316,-2080 731.316,-2086 725.316,-2086 725.316,-2086 236.218,-2086 236.218,-2086 230.218,-2086 224.218,-2080 224.218,-2074 224.218,-2074 224.218,-1865 224.218,-1865 224.218,-1859 230.218,-1853 236.218,-1853"/>
<text text-anchor="middle" x="480.767" y="-2073.2" font-family="Times,serif" font-size="11.00" fill="gray">Block</text>
</g>
<g id="clust5" class="cluster"><title>cluster_\Prismic\Fragment\Span</title>
<path fill="none" stroke="gray" d="M423.958,-1612C423.958,-1612 712.113,-1612 712.113,-1612 718.113,-1612 724.113,-1618 724.113,-1624 724.113,-1624 724.113,-1833 724.113,-1833 724.113,-1839 718.113,-1845 712.113,-1845 712.113,-1845 423.958,-1845 423.958,-1845 417.958,-1845 411.958,-1839 411.958,-1833 411.958,-1833 411.958,-1624 411.958,-1624 411.958,-1618 417.958,-1612 423.958,-1612"/>
<text text-anchor="middle" x="568.036" y="-1832.2" font-family="Times,serif" font-size="11.00" fill="gray">Span</text>
</g>
<g id="clust6" class="cluster"><title>cluster_\Prismic\Fragment\Link</title>
<path fill="none" stroke="gray" d="M239.519,-1425C239.519,-1425 698.911,-1425 698.911,-1425 704.911,-1425 710.911,-1431 710.911,-1437 710.911,-1437 710.911,-1592 710.911,-1592 710.911,-1598 704.911,-1604 698.911,-1604 698.911,-1604 239.519,-1604 239.519,-1604 233.519,-1604 227.519,-1598 227.519,-1592 227.519,-1592 227.519,-1437 227.519,-1437 227.519,-1431 233.519,-1425 239.519,-1425"/>
<text text-anchor="middle" x="469.215" y="-1591.2" font-family="Times,serif" font-size="11.00" fill="gray">Link</text>
</g>
<g id="clust7" class="cluster"><title>cluster_\Prismic\Cache</title>
<path fill="none" stroke="gray" d="M420.658,-754C420.658,-754 695.611,-754 695.611,-754 701.611,-754 707.611,-760 707.611,-766 707.611,-766 707.611,-867 707.611,-867 707.611,-873 701.611,-879 695.611,-879 695.611,-879 420.658,-879 420.658,-879 414.658,-879 408.658,-873 408.658,-867 408.658,-867 408.658,-766 408.658,-766 408.658,-760 414.658,-754 420.658,-754"/>
<text text-anchor="middle" x="558.134" y="-866.2" font-family="Times,serif" font-size="11.00" fill="gray">Cache</text>
</g>
<!-- \\Prismic\\Fragment\\Block\\PreformattedBlock -->
<g id="node1" class="node"><title>\\Prismic\\Fragment\\Block\\PreformattedBlock</title>
<polygon fill="none" stroke="black" points="729.425,-2059 600.988,-2059 600.988,-2023 729.425,-2023 729.425,-2059"/>
<text text-anchor="middle" x="665.206" y="-2037.7" font-family="Courier,monospace" font-size="11.00">PreformattedBlock</text>
</g>
<!-- \\Prismic\\Fragment\\Block\\TextBlock -->
<g id="node7" class="node"><title>\\Prismic\\Fragment\\Block\\TextBlock</title>
<polygon fill="none" stroke="black" points="511.876,-1951 429.855,-1951 429.855,-1915 511.876,-1915 511.876,-1951"/>
<text text-anchor="start" x="437.86" y="-1935.2" font-family="Courier,monospace" font-size="11.00">«abstract»</text>
<text text-anchor="start" x="441.16" y="-1924.2" font-family="Courier,monospace" font-size="11.00">TextBlock</text>
</g>
<!-- \\Prismic\\Fragment\\Block\\PreformattedBlock&#45;&gt;\\Prismic\\Fragment\\Block\\TextBlock -->
<g id="edge1" class="edge"><title>\\Prismic\\Fragment\\Block\\PreformattedBlock&#45;&gt;\\Prismic\\Fragment\\Block\\TextBlock</title>
<path fill="none" stroke="black" d="M618.409,-2022.95C612.476,-2020.17 606.566,-2017.16 601.097,-2014 566.462,-1993.99 563.361,-1980.64 529.097,-1960 526.499,-1958.43 523.796,-1956.89 521.04,-1955.39"/>
<polygon fill="none" stroke="black" points="522.608,-1952.26 512.125,-1950.72 519.362,-1958.46 522.608,-1952.26"/>
</g>
<!-- \\Prismic\\Fragment\\Block\\EmbedBlock -->
<g id="node2" class="node"><title>\\Prismic\\Fragment\\Block\\EmbedBlock</title>
<polygon fill="none" stroke="black" points="511.876,-2059 429.855,-2059 429.855,-2023 511.876,-2023 511.876,-2059"/>
<text text-anchor="middle" x="470.865" y="-2037.7" font-family="Courier,monospace" font-size="11.00">EmbedBlock</text>
</g>
<!-- \\Prismic\\Fragment\\Block\\BlockInterface -->
<g id="node8" class="node"><title>\\Prismic\\Fragment\\Block\\BlockInterface</title>
<polygon fill="none" stroke="black" points="340.842,-2005 232.01,-2005 232.01,-1969 340.842,-1969 340.842,-2005"/>
<text text-anchor="middle" x="286.426" y="-1983.7" font-family="Courier,monospace" font-size="11.00">BlockInterface</text>
</g>
<!-- \\Prismic\\Fragment\\Block\\EmbedBlock&#45;&gt;\\Prismic\\Fragment\\Block\\BlockInterface -->
<g id="edge2" class="edge"><title>\\Prismic\\Fragment\\Block\\EmbedBlock&#45;&gt;\\Prismic\\Fragment\\Block\\BlockInterface</title>
<path fill="none" stroke="black" stroke-dasharray="1,5" d="M429.828,-2029.15C406.669,-2022.29 377.002,-2013.51 350.747,-2005.74"/>
<polygon fill="none" stroke="black" points="351.455,-2002.3 340.872,-2002.82 349.468,-2009.01 351.455,-2002.3"/>
</g>
<!-- \\Prismic\\Fragment\\Block\\ImageBlock -->
<g id="node3" class="node"><title>\\Prismic\\Fragment\\Block\\ImageBlock</title>
<polygon fill="none" stroke="black" points="511.876,-2005 429.855,-2005 429.855,-1969 511.876,-1969 511.876,-2005"/>
<text text-anchor="middle" x="470.865" y="-1983.7" font-family="Courier,monospace" font-size="11.00">ImageBlock</text>
</g>
<!-- \\Prismic\\Fragment\\Block\\ImageBlock&#45;&gt;\\Prismic\\Fragment\\Block\\BlockInterface -->
<g id="edge4" class="edge"><title>\\Prismic\\Fragment\\Block\\ImageBlock&#45;&gt;\\Prismic\\Fragment\\Block\\BlockInterface</title>
<path fill="none" stroke="black" stroke-dasharray="1,5" d="M429.828,-1987C406.771,-1987 377.263,-1987 351.094,-1987"/>
<polygon fill="none" stroke="black" points="350.872,-1983.5 340.872,-1987 350.872,-1990.5 350.872,-1983.5"/>
</g>
<!-- \\Prismic\\Fragment\\Block\\HeadingBlock -->
<g id="node4" class="node"><title>\\Prismic\\Fragment\\Block\\HeadingBlock</title>
<polygon fill="none" stroke="black" points="712.92,-2005 617.493,-2005 617.493,-1969 712.92,-1969 712.92,-2005"/>
<text text-anchor="middle" x="665.206" y="-1983.7" font-family="Courier,monospace" font-size="11.00">HeadingBlock</text>
</g>
<!-- \\Prismic\\Fragment\\Block\\HeadingBlock&#45;&gt;\\Prismic\\Fragment\\Block\\TextBlock -->
<g id="edge14" class="edge"><title>\\Prismic\\Fragment\\Block\\HeadingBlock&#45;&gt;\\Prismic\\Fragment\\Block\\TextBlock</title>
<path fill="none" stroke="black" d="M617.155,-1973.79C588.178,-1965.65 551.068,-1955.24 521.607,-1946.97"/>
<polygon fill="none" stroke="black" points="522.506,-1943.58 511.932,-1944.25 520.614,-1950.32 522.506,-1943.58"/>
</g>
<!-- \\Prismic\\Fragment\\Block\\ListItemBlock -->
<g id="node5" class="node"><title>\\Prismic\\Fragment\\Block\\ListItemBlock</title>
<polygon fill="none" stroke="black" points="716.021,-1951 614.392,-1951 614.392,-1915 716.021,-1915 716.021,-1951"/>
<text text-anchor="middle" x="665.206" y="-1929.7" font-family="Courier,monospace" font-size="11.00">ListItemBlock</text>
</g>
<!-- \\Prismic\\Fragment\\Block\\ListItemBlock&#45;&gt;\\Prismic\\Fragment\\Block\\TextBlock -->
<g id="edge15" class="edge"><title>\\Prismic\\Fragment\\Block\\ListItemBlock&#45;&gt;\\Prismic\\Fragment\\Block\\TextBlock</title>
<path fill="none" stroke="black" d="M614.173,-1933C585.821,-1933 550.457,-1933 522.076,-1933"/>
<polygon fill="none" stroke="black" points="521.961,-1929.5 511.961,-1933 521.961,-1936.5 521.961,-1929.5"/>
</g>
<!-- \\Prismic\\Fragment\\Block\\ParagraphBlock -->
<g id="node6" class="node"><title>\\Prismic\\Fragment\\Block\\ParagraphBlock</title>
<polygon fill="none" stroke="black" points="719.622,-1897 610.791,-1897 610.791,-1861 719.622,-1861 719.622,-1897"/>
<text text-anchor="middle" x="665.206" y="-1875.7" font-family="Courier,monospace" font-size="11.00">ParagraphBlock</text>
</g>
<!-- \\Prismic\\Fragment\\Block\\ParagraphBlock&#45;&gt;\\Prismic\\Fragment\\Block\\TextBlock -->
<g id="edge25" class="edge"><title>\\Prismic\\Fragment\\Block\\ParagraphBlock&#45;&gt;\\Prismic\\Fragment\\Block\\TextBlock</title>
<path fill="none" stroke="black" d="M610.884,-1893.97C583.061,-1901.78 549.222,-1911.28 521.897,-1918.95"/>
<polygon fill="none" stroke="black" points="520.829,-1915.62 512.147,-1921.69 522.721,-1922.36 520.829,-1915.62"/>
</g>
<!-- \\Prismic\\Fragment\\Block\\TextBlock&#45;&gt;\\Prismic\\Fragment\\Block\\BlockInterface -->
<g id="edge32" class="edge"><title>\\Prismic\\Fragment\\Block\\TextBlock&#45;&gt;\\Prismic\\Fragment\\Block\\BlockInterface</title>
<path fill="none" stroke="black" stroke-dasharray="1,5" d="M429.828,-1944.85C406.669,-1951.71 377.002,-1960.49 350.747,-1968.26"/>
<polygon fill="none" stroke="black" points="349.468,-1964.99 340.872,-1971.18 351.455,-1971.7 349.468,-1964.99"/>
</g>
<!-- \\Prismic\\Fragment\\Span\\HyperlinkSpan -->
<g id="node9" class="node"><title>\\Prismic\\Fragment\\Span\\HyperlinkSpan</title>
<polygon fill="none" stroke="black" points="716.021,-1818 614.392,-1818 614.392,-1782 716.021,-1782 716.021,-1818"/>
<text text-anchor="middle" x="665.206" y="-1796.7" font-family="Courier,monospace" font-size="11.00">HyperlinkSpan</text>
</g>
<!-- \\Prismic\\Fragment\\Span\\SpanInterface -->
<g id="node13" class="node"><title>\\Prismic\\Fragment\\Span\\SpanInterface</title>
<polygon fill="none" stroke="black" points="521.679,-1737 420.051,-1737 420.051,-1701 521.679,-1701 521.679,-1737"/>
<text text-anchor="middle" x="470.865" y="-1715.7" font-family="Courier,monospace" font-size="11.00">SpanInterface</text>
</g>
<!-- \\Prismic\\Fragment\\Span\\HyperlinkSpan&#45;&gt;\\Prismic\\Fragment\\Span\\SpanInterface -->
<g id="edge3" class="edge"><title>\\Prismic\\Fragment\\Span\\HyperlinkSpan&#45;&gt;\\Prismic\\Fragment\\Span\\SpanInterface</title>
<path fill="none" stroke="black" stroke-dasharray="1,5" d="M621.041,-1781.82C592.458,-1769.78 554.789,-1753.92 524.456,-1741.15"/>
<polygon fill="none" stroke="black" points="525.461,-1737.77 514.886,-1737.12 522.744,-1744.22 525.461,-1737.77"/>
</g>
<!-- \\Prismic\\Fragment\\Span\\EmSpan -->
<g id="node10" class="node"><title>\\Prismic\\Fragment\\Span\\EmSpan</title>
<polygon fill="none" stroke="black" points="692.814,-1764 637.599,-1764 637.599,-1728 692.814,-1728 692.814,-1764"/>
<text text-anchor="middle" x="665.206" y="-1742.7" font-family="Courier,monospace" font-size="11.00">EmSpan</text>
</g>
<!-- \\Prismic\\Fragment\\Span\\EmSpan&#45;&gt;\\Prismic\\Fragment\\Span\\SpanInterface -->
<g id="edge6" class="edge"><title>\\Prismic\\Fragment\\Span\\EmSpan&#45;&gt;\\Prismic\\Fragment\\Span\\SpanInterface</title>
<path fill="none" stroke="black" stroke-dasharray="1,5" d="M637.462,-1742.25C610.311,-1738.43 567.351,-1732.4 531.992,-1727.44"/>
<polygon fill="none" stroke="black" points="532.155,-1723.93 521.765,-1726 531.182,-1730.86 532.155,-1723.93"/>
</g>
<!-- \\Prismic\\Fragment\\Span\\LabelSpan -->
<g id="node11" class="node"><title>\\Prismic\\Fragment\\Span\\LabelSpan</title>
<polygon fill="none" stroke="black" points="703.117,-1710 627.296,-1710 627.296,-1674 703.117,-1674 703.117,-1710"/>
<text text-anchor="middle" x="665.206" y="-1688.7" font-family="Courier,monospace" font-size="11.00">LabelSpan</text>
</g>
<!-- \\Prismic\\Fragment\\Span\\LabelSpan&#45;&gt;\\Prismic\\Fragment\\Span\\SpanInterface -->
<g id="edge20" class="edge"><title>\\Prismic\\Fragment\\Span\\LabelSpan&#45;&gt;\\Prismic\\Fragment\\Span\\SpanInterface</title>
<path fill="none" stroke="black" stroke-dasharray="1,5" d="M627.121,-1697.21C600.248,-1700.98 563.325,-1706.16 532.229,-1710.53"/>
<polygon fill="none" stroke="black" points="531.346,-1707.12 521.93,-1711.97 532.319,-1714.05 531.346,-1707.12"/>
</g>
<!-- \\Prismic\\Fragment\\Span\\StrongSpan -->
<g id="node12" class="node"><title>\\Prismic\\Fragment\\Span\\StrongSpan</title>
<polygon fill="none" stroke="black" points="706.217,-1656 624.196,-1656 624.196,-1620 706.217,-1620 706.217,-1656"/>
<text text-anchor="middle" x="665.206" y="-1634.7" font-family="Courier,monospace" font-size="11.00">StrongSpan</text>
</g>
<!-- \\Prismic\\Fragment\\Span\\StrongSpan&#45;&gt;\\Prismic\\Fragment\\Span\\SpanInterface -->
<g id="edge21" class="edge"><title>\\Prismic\\Fragment\\Span\\StrongSpan&#45;&gt;\\Prismic\\Fragment\\Span\\SpanInterface</title>
<path fill="none" stroke="black" stroke-dasharray="1,5" d="M623.885,-1654.98C594.935,-1667.17 555.65,-1683.72 524.269,-1696.93"/>
<polygon fill="none" stroke="black" points="522.662,-1693.81 514.804,-1700.92 525.379,-1700.26 522.662,-1693.81"/>
</g>
<!-- \\Prismic\\Fragment\\Link\\WebLink -->
<g id="node14" class="node"><title>\\Prismic\\Fragment\\Link\\WebLink</title>
<polygon fill="none" stroke="black" points="502.073,-1523 439.657,-1523 439.657,-1487 502.073,-1487 502.073,-1523"/>
<text text-anchor="middle" x="470.865" y="-1501.7" font-family="Courier,monospace" font-size="11.00">WebLink</text>
</g>
<!-- \\Prismic\\Fragment\\Link\\LinkInterface -->
<g id="node18" class="node"><title>\\Prismic\\Fragment\\Link\\LinkInterface</title>
<polygon fill="none" stroke="black" points="337.24,-1497 235.612,-1497 235.612,-1461 337.24,-1461 337.24,-1497"/>
<text text-anchor="middle" x="286.426" y="-1475.7" font-family="Courier,monospace" font-size="11.00">LinkInterface</text>
</g>
<!-- \\Prismic\\Fragment\\Link\\WebLink&#45;&gt;\\Prismic\\Fragment\\Link\\LinkInterface -->
<g id="edge12" class="edge"><title>\\Prismic\\Fragment\\Link\\WebLink&#45;&gt;\\Prismic\\Fragment\\Link\\LinkInterface</title>
<path fill="none" stroke="black" stroke-dasharray="1,5" d="M439.739,-1500.71C414.825,-1497.16 378.658,-1492 347.818,-1487.61"/>
<polygon fill="none" stroke="black" points="347.981,-1484.09 337.587,-1486.15 346.994,-1491.02 347.981,-1484.09"/>
</g>
<!-- \\Prismic\\Fragment\\Link\\ImageLink -->
<g id="node15" class="node"><title>\\Prismic\\Fragment\\Link\\ImageLink</title>
<polygon fill="none" stroke="black" points="703.117,-1469 627.296,-1469 627.296,-1433 703.117,-1433 703.117,-1469"/>
<text text-anchor="middle" x="665.206" y="-1447.7" font-family="Courier,monospace" font-size="11.00">ImageLink</text>
</g>
<!-- \\Prismic\\Fragment\\Link\\FileLink -->
<g id="node16" class="node"><title>\\Prismic\\Fragment\\Link\\FileLink</title>
<polygon fill="none" stroke="black" points="505.174,-1469 436.556,-1469 436.556,-1433 505.174,-1433 505.174,-1469"/>
<text text-anchor="middle" x="470.865" y="-1447.7" font-family="Courier,monospace" font-size="11.00">FileLink</text>
</g>
<!-- \\Prismic\\Fragment\\Link\\ImageLink&#45;&gt;\\Prismic\\Fragment\\Link\\FileLink -->
<g id="edge17" class="edge"><title>\\Prismic\\Fragment\\Link\\ImageLink&#45;&gt;\\Prismic\\Fragment\\Link\\FileLink</title>
<path fill="none" stroke="black" d="M627.121,-1451C595.167,-1451 549.003,-1451 515.322,-1451"/>
<polygon fill="none" stroke="black" points="515.3,-1447.5 505.3,-1451 515.3,-1454.5 515.3,-1447.5"/>
</g>
<!-- \\Prismic\\Fragment\\Link\\FileLink&#45;&gt;\\Prismic\\Fragment\\Link\\LinkInterface -->
<g id="edge26" class="edge"><title>\\Prismic\\Fragment\\Link\\FileLink&#45;&gt;\\Prismic\\Fragment\\Link\\LinkInterface</title>
<path fill="none" stroke="black" stroke-dasharray="1,5" d="M436.403,-1456.14C411.65,-1459.93 377.258,-1465.21 347.754,-1469.74"/>
<polygon fill="none" stroke="black" points="346.899,-1466.33 337.546,-1471.31 347.961,-1473.25 346.899,-1466.33"/>
</g>
<!-- \\Prismic\\Fragment\\Link\\DocumentLink -->
<g id="node17" class="node"><title>\\Prismic\\Fragment\\Link\\DocumentLink</title>
<polygon fill="none" stroke="black" points="518.578,-1577 423.152,-1577 423.152,-1541 518.578,-1541 518.578,-1577"/>
<text text-anchor="middle" x="470.865" y="-1555.7" font-family="Courier,monospace" font-size="11.00">DocumentLink</text>
</g>
<!-- \\Prismic\\Fragment\\Link\\DocumentLink&#45;&gt;\\Prismic\\Fragment\\Link\\LinkInterface -->
<g id="edge28" class="edge"><title>\\Prismic\\Fragment\\Link\\DocumentLink&#45;&gt;\\Prismic\\Fragment\\Link\\LinkInterface</title>
<path fill="none" stroke="black" stroke-dasharray="1,5" d="M428.68,-1540.91C421.981,-1537.95 415.122,-1534.9 408.658,-1532 378.342,-1518.41 371.106,-1514.24 340.633,-1501 340.539,-1500.96 340.444,-1500.92 340.349,-1500.88"/>
<polygon fill="none" stroke="black" points="341.892,-1497.73 331.322,-1497.01 339.133,-1504.16 341.892,-1497.73"/>
</g>
<!-- \\Prismic\\WithFragments -->
<g id="node48" class="node"><title>\\Prismic\\WithFragments</title>
<polygon fill="none" stroke="black" points="337.24,-2157 235.612,-2157 235.612,-2121 337.24,-2121 337.24,-2157"/>
<text text-anchor="middle" x="286.426" y="-2135.7" font-family="Courier,monospace" font-size="11.00">WithFragments</text>
</g>
<!-- \\Prismic\\Fragment\\Link\\DocumentLink&#45;&gt;\\Prismic\\WithFragments -->
<g id="edge27" class="edge"><title>\\Prismic\\Fragment\\Link\\DocumentLink&#45;&gt;\\Prismic\\WithFragments</title>
<path fill="none" stroke="black" d="M438.488,-1577.07C427.303,-1585.11 415.734,-1595.58 408.658,-1608 301.543,-1795.97 441.184,-1898.44 340.633,-2090 336.004,-2098.82 329.136,-2106.88 321.861,-2113.8"/>
<polygon fill="none" stroke="black" points="319.065,-2111.6 313.894,-2120.85 323.703,-2116.84 319.065,-2111.6"/>
</g>
<!-- \\Prismic\\Fragment\\FragmentInterface -->
<g id="node35" class="node"><title>\\Prismic\\Fragment\\FragmentInterface</title>
<polygon fill="none" stroke="black" points="160.328,-1255 31.8907,-1255 31.8907,-1219 160.328,-1219 160.328,-1255"/>
<text text-anchor="middle" x="96.1091" y="-1233.7" font-family="Courier,monospace" font-size="11.00">FragmentInterface</text>
</g>
<!-- \\Prismic\\Fragment\\Link\\LinkInterface&#45;&gt;\\Prismic\\Fragment\\FragmentInterface -->
<g id="edge35" class="edge"><title>\\Prismic\\Fragment\\Link\\LinkInterface&#45;&gt;\\Prismic\\Fragment\\FragmentInterface</title>
<path fill="none" stroke="black" d="M235.332,-1464.46C231.368,-1462.3 227.598,-1459.82 224.218,-1457 160.959,-1404.15 122.325,-1311.23 106.072,-1264.9"/>
<polygon fill="none" stroke="black" points="109.312,-1263.56 102.767,-1255.23 102.687,-1265.82 109.312,-1263.56"/>
</g>
<!-- \\Prismic\\Fragment\\StructuredText -->
<g id="node19" class="node"><title>\\Prismic\\Fragment\\StructuredText</title>
<polygon fill="none" stroke="black" points="340.842,-1417 232.01,-1417 232.01,-1381 340.842,-1381 340.842,-1417"/>
<text text-anchor="middle" x="286.426" y="-1395.7" font-family="Courier,monospace" font-size="11.00">StructuredText</text>
</g>
<!-- \\Prismic\\Fragment\\StructuredText&#45;&gt;\\Prismic\\Fragment\\FragmentInterface -->
<g id="edge7" class="edge"><title>\\Prismic\\Fragment\\StructuredText&#45;&gt;\\Prismic\\Fragment\\FragmentInterface</title>
<path fill="none" stroke="black" stroke-dasharray="1,5" d="M238.882,-1380.87C233.767,-1378.18 228.77,-1375.22 224.218,-1372 180.439,-1341.04 139.821,-1293.22 116.783,-1263.59"/>
<polygon fill="none" stroke="black" points="119.35,-1261.18 110.488,-1255.37 113.794,-1265.44 119.35,-1261.18"/>
</g>
<!-- \\Prismic\\Fragment\\Text -->
<g id="node20" class="node"><title>\\Prismic\\Fragment\\Text</title>
<polygon fill="none" stroke="black" points="313.426,-1363 259.426,-1363 259.426,-1327 313.426,-1327 313.426,-1363"/>
<text text-anchor="middle" x="286.426" y="-1341.7" font-family="Courier,monospace" font-size="11.00">Text</text>
</g>
<!-- \\Prismic\\Fragment\\Text&#45;&gt;\\Prismic\\Fragment\\FragmentInterface -->
<g id="edge8" class="edge"><title>\\Prismic\\Fragment\\Text&#45;&gt;\\Prismic\\Fragment\\FragmentInterface</title>
<path fill="none" stroke="black" stroke-dasharray="1,5" d="M259.4,-1334.55C248.367,-1329.86 235.482,-1324.03 224.218,-1318 191.817,-1300.66 156.711,-1277.97 131.62,-1261.01"/>
<polygon fill="none" stroke="black" points="133.421,-1258.01 123.184,-1255.27 129.483,-1263.79 133.421,-1258.01"/>
</g>
<!-- \\Prismic\\Fragment\\GroupDoc -->
<g id="node21" class="node"><title>\\Prismic\\Fragment\\GroupDoc</title>
<polygon fill="none" stroke="black" points="699.515,-1394 630.898,-1394 630.898,-1358 699.515,-1358 699.515,-1394"/>
<text text-anchor="middle" x="665.206" y="-1372.7" font-family="Courier,monospace" font-size="11.00">GroupDoc</text>
</g>
<!-- \\Prismic\\Fragment\\GroupDoc&#45;&gt;\\Prismic\\WithFragments -->
<g id="edge9" class="edge"><title>\\Prismic\\Fragment\\GroupDoc&#45;&gt;\\Prismic\\WithFragments</title>
<path fill="none" stroke="black" d="M630.694,-1392.4C619.454,-1399.6 608.028,-1409.15 601.097,-1421 525.599,-1550.07 630.874,-1980.46 529.097,-2090 510.578,-2109.93 435.323,-2106.6 408.658,-2112 388.682,-2116.05 366.929,-2120.79 347.436,-2125.16"/>
<polygon fill="none" stroke="black" points="346.456,-2121.79 337.469,-2127.4 347.994,-2128.62 346.456,-2121.79"/>
</g>
<!-- \\ArrayAccess -->
<g id="node55" class="node"><title>\\ArrayAccess</title>
<ellipse fill="none" stroke="black" cx="470.865" cy="-18" rx="58.465" ry="18"/>
<text text-anchor="middle" x="470.865" y="-13.8" font-family="Times,serif" font-size="14.00" fill="gray">\ArrayAccess</text>
</g>
<!-- \\Prismic\\Fragment\\GroupDoc&#45;&gt;\\ArrayAccess -->
<g id="edge10" class="edge"><title>\\Prismic\\Fragment\\GroupDoc&#45;&gt;\\ArrayAccess</title>
<path fill="none" stroke="black" stroke-dasharray="1,5" d="M630.666,-1358.98C619.28,-1351.42 607.762,-1341.39 601.097,-1329 466.058,-1077.89 683.451,-287.721 529.097,-48 526.429,-43.8557 522.99,-40.2503 519.125,-37.1208"/>
<polygon fill="none" stroke="black" points="520.928,-34.1132 510.701,-31.3455 516.97,-39.8867 520.928,-34.1132"/>
</g>
<!-- \\Prismic\\Fragment\\Timestamp -->
<g id="node22" class="node"><title>\\Prismic\\Fragment\\Timestamp</title>
<polygon fill="none" stroke="black" points="324.337,-1309 248.515,-1309 248.515,-1273 324.337,-1273 324.337,-1309"/>
<text text-anchor="middle" x="286.426" y="-1287.7" font-family="Courier,monospace" font-size="11.00">Timestamp</text>
</g>
<!-- \\Prismic\\Fragment\\Timestamp&#45;&gt;\\Prismic\\Fragment\\FragmentInterface -->
<g id="edge11" class="edge"><title>\\Prismic\\Fragment\\Timestamp&#45;&gt;\\Prismic\\Fragment\\FragmentInterface</title>
<path fill="none" stroke="black" stroke-dasharray="1,5" d="M248.669,-1280.46C226.267,-1274.04 196.853,-1265.6 169.905,-1257.87"/>
<polygon fill="none" stroke="black" points="170.683,-1254.46 160.105,-1255.06 168.753,-1261.19 170.683,-1254.46"/>
</g>
<!-- \\Prismic\\Fragment\\GeoPoint -->
<g id="node23" class="node"><title>\\Prismic\\Fragment\\GeoPoint</title>
<polygon fill="none" stroke="black" points="320.735,-1255 252.117,-1255 252.117,-1219 320.735,-1219 320.735,-1255"/>
<text text-anchor="middle" x="286.426" y="-1233.7" font-family="Courier,monospace" font-size="11.00">GeoPoint</text>
</g>
<!-- \\Prismic\\Fragment\\GeoPoint&#45;&gt;\\Prismic\\Fragment\\FragmentInterface -->
<g id="edge13" class="edge"><title>\\Prismic\\Fragment\\GeoPoint&#45;&gt;\\Prismic\\Fragment\\FragmentInterface</title>
<path fill="none" stroke="black" stroke-dasharray="1,5" d="M251.759,-1237C229.239,-1237 198.715,-1237 170.733,-1237"/>
<polygon fill="none" stroke="black" points="170.559,-1233.5 160.559,-1237 170.559,-1240.5 170.559,-1233.5"/>
</g>
<!-- \\Prismic\\Fragment\\ImageView -->
<g id="node24" class="node"><title>\\Prismic\\Fragment\\ImageView</title>
<polygon fill="none" stroke="black" points="703.117,-1320 627.296,-1320 627.296,-1284 703.117,-1284 703.117,-1320"/>
<text text-anchor="middle" x="665.206" y="-1298.7" font-family="Courier,monospace" font-size="11.00">ImageView</text>
</g>
<!-- \\Prismic\\Fragment\\Embed -->
<g id="node25" class="node"><title>\\Prismic\\Fragment\\Embed</title>
<polygon fill="none" stroke="black" points="313.426,-1201 259.426,-1201 259.426,-1165 313.426,-1165 313.426,-1201"/>
<text text-anchor="middle" x="286.426" y="-1179.7" font-family="Courier,monospace" font-size="11.00">Embed</text>
</g>
<!-- \\Prismic\\Fragment\\Embed&#45;&gt;\\Prismic\\Fragment\\FragmentInterface -->
<g id="edge16" class="edge"><title>\\Prismic\\Fragment\\Embed&#45;&gt;\\Prismic\\Fragment\\FragmentInterface</title>
<path fill="none" stroke="black" stroke-dasharray="1,5" d="M259.241,-1190.51C236.069,-1197.15 201.137,-1207.17 169.624,-1216.21"/>
<polygon fill="none" stroke="black" points="168.619,-1212.85 159.971,-1218.97 170.549,-1219.58 168.619,-1212.85"/>
</g>
<!-- \\Prismic\\Fragment\\Color -->
<g id="node26" class="node"><title>\\Prismic\\Fragment\\Color</title>
<polygon fill="none" stroke="black" points="313.426,-1147 259.426,-1147 259.426,-1111 313.426,-1111 313.426,-1147"/>
<text text-anchor="middle" x="286.426" y="-1125.7" font-family="Courier,monospace" font-size="11.00">Color</text>
</g>
<!-- \\Prismic\\Fragment\\Color&#45;&gt;\\Prismic\\Fragment\\FragmentInterface -->
<g id="edge19" class="edge"><title>\\Prismic\\Fragment\\Color&#45;&gt;\\Prismic\\Fragment\\FragmentInterface</title>
<path fill="none" stroke="black" stroke-dasharray="1,5" d="M259.4,-1139.45C248.367,-1144.14 235.482,-1149.97 224.218,-1156 191.817,-1173.34 156.711,-1196.03 131.62,-1212.99"/>
<polygon fill="none" stroke="black" points="129.483,-1210.21 123.184,-1218.73 133.421,-1215.99 129.483,-1210.21"/>
</g>
<!-- \\Prismic\\Fragment\\Group -->
<g id="node27" class="node"><title>\\Prismic\\Fragment\\Group</title>
<polygon fill="none" stroke="black" points="313.426,-1093 259.426,-1093 259.426,-1057 313.426,-1057 313.426,-1093"/>
<text text-anchor="middle" x="286.426" y="-1071.7" font-family="Courier,monospace" font-size="11.00">Group</text>
</g>
<!-- \\Prismic\\Fragment\\Group&#45;&gt;\\Prismic\\Fragment\\FragmentInterface -->
<g id="edge22" class="edge"><title>\\Prismic\\Fragment\\Group&#45;&gt;\\Prismic\\Fragment\\FragmentInterface</title>
<path fill="none" stroke="black" stroke-dasharray="1,5" d="M259.195,-1083.89C247.882,-1088.38 234.839,-1094.49 224.218,-1102 180.439,-1132.96 139.821,-1180.78 116.783,-1210.41"/>
<polygon fill="none" stroke="black" points="113.794,-1208.56 110.488,-1218.63 119.35,-1212.82 113.794,-1208.56"/>
</g>
<!-- \\Prismic\\Fragment\\Date -->
<g id="node28" class="node"><title>\\Prismic\\Fragment\\Date</title>
<polygon fill="none" stroke="black" points="313.426,-1039 259.426,-1039 259.426,-1003 313.426,-1003 313.426,-1039"/>
<text text-anchor="middle" x="286.426" y="-1017.7" font-family="Courier,monospace" font-size="11.00">Date</text>
</g>
<!-- \\Prismic\\Fragment\\Date&#45;&gt;\\Prismic\\Fragment\\FragmentInterface -->
<g id="edge23" class="edge"><title>\\Prismic\\Fragment\\Date&#45;&gt;\\Prismic\\Fragment\\FragmentInterface</title>
<path fill="none" stroke="black" stroke-dasharray="1,5" d="M259.191,-1028.86C247.618,-1033.22 234.37,-1039.5 224.218,-1048 169.321,-1093.97 128.492,-1169.46 109.294,-1209.72"/>
<polygon fill="none" stroke="black" points="106.056,-1208.38 104.99,-1218.92 112.397,-1211.34 106.056,-1208.38"/>
</g>
<!-- \\Prismic\\Fragment\\Image -->
<g id="node29" class="node"><title>\\Prismic\\Fragment\\Image</title>
<polygon fill="none" stroke="black" points="313.426,-985 259.426,-985 259.426,-949 313.426,-949 313.426,-985"/>
<text text-anchor="middle" x="286.426" y="-963.7" font-family="Courier,monospace" font-size="11.00">Image</text>
</g>
<!-- \\Prismic\\Fragment\\Image&#45;&gt;\\Prismic\\Fragment\\FragmentInterface -->
<g id="edge24" class="edge"><title>\\Prismic\\Fragment\\Image&#45;&gt;\\Prismic\\Fragment\\FragmentInterface</title>
<path fill="none" stroke="black" stroke-dasharray="1,5" d="M259.358,-974.134C247.546,-978.389 234.056,-984.795 224.218,-994 158.167,-1055.8 120.147,-1159.71 104.93,-1209.19"/>
<polygon fill="none" stroke="black" points="101.542,-1208.3 102.027,-1218.88 108.248,-1210.31 101.542,-1208.3"/>
</g>
<!-- \\Prismic\\Fragment\\BlockGroup -->
<g id="node30" class="node"><title>\\Prismic\\Fragment\\BlockGroup</title>
<polygon fill="none" stroke="black" points="706.217,-1226 624.196,-1226 624.196,-1190 706.217,-1190 706.217,-1226"/>
<text text-anchor="middle" x="665.206" y="-1204.7" font-family="Courier,monospace" font-size="11.00">BlockGroup</text>
</g>
<!-- \\Prismic\\Fragment\\Number -->
<g id="node31" class="node"><title>\\Prismic\\Fragment\\Number</title>
<polygon fill="none" stroke="black" points="314.034,-931 258.818,-931 258.818,-895 314.034,-895 314.034,-931"/>
<text text-anchor="middle" x="286.426" y="-909.7" font-family="Courier,monospace" font-size="11.00">Number</text>
</g>
<!-- \\Prismic\\Fragment\\Number&#45;&gt;\\Prismic\\Fragment\\FragmentInterface -->
<g id="edge30" class="edge"><title>\\Prismic\\Fragment\\Number&#45;&gt;\\Prismic\\Fragment\\FragmentInterface</title>
<path fill="none" stroke="black" stroke-dasharray="1,5" d="M258.723,-919.907C246.916,-924.091 233.61,-930.504 224.218,-940 146.806,-1018.27 113.378,-1151.12 101.995,-1208.83"/>
<polygon fill="none" stroke="black" points="98.5473,-1208.23 100.12,-1218.71 105.424,-1209.54 98.5473,-1208.23"/>
</g>
<!-- \\Prismic\\Fragment\\ParsedText -->
<g id="node32" class="node"><title>\\Prismic\\Fragment\\ParsedText</title>
<polygon fill="none" stroke="black" points="706.217,-1092 624.196,-1092 624.196,-1056 706.217,-1056 706.217,-1092"/>
<text text-anchor="middle" x="665.206" y="-1070.7" font-family="Courier,monospace" font-size="11.00">ParsedText</text>
</g>
<!-- \\Prismic\\Fragment\\Slice -->
<g id="node33" class="node"><title>\\Prismic\\Fragment\\Slice</title>
<polygon fill="none" stroke="black" points="313.426,-1702 259.426,-1702 259.426,-1666 313.426,-1666 313.426,-1702"/>
<text text-anchor="middle" x="286.426" y="-1680.7" font-family="Courier,monospace" font-size="11.00">Slice</text>
</g>
<!-- \\Prismic\\Fragment\\Slice&#45;&gt;\\Prismic\\Fragment\\FragmentInterface -->
<g id="edge33" class="edge"><title>\\Prismic\\Fragment\\Slice&#45;&gt;\\Prismic\\Fragment\\FragmentInterface</title>
<path fill="none" stroke="black" stroke-dasharray="1,5" d="M259.162,-1677.87C247.017,-1673.8 233.302,-1667.26 224.218,-1657 120.229,-1539.53 101.291,-1339.28 97.8604,-1265.44"/>
<polygon fill="none" stroke="black" points="101.344,-1264.94 97.4453,-1255.09 94.3492,-1265.22 101.344,-1264.94"/>
</g>
<!-- \\Prismic\\Fragment\\SliceZone -->
<g id="node34" class="node"><title>\\Prismic\\Fragment\\SliceZone</title>
<polygon fill="none" stroke="black" points="324.337,-1648 248.515,-1648 248.515,-1612 324.337,-1612 324.337,-1648"/>
<text text-anchor="middle" x="286.426" y="-1626.7" font-family="Courier,monospace" font-size="11.00">SliceZone</text>
</g>
<!-- \\Prismic\\Fragment\\SliceZone&#45;&gt;\\Prismic\\Fragment\\FragmentInterface -->
<g id="edge34" class="edge"><title>\\Prismic\\Fragment\\SliceZone&#45;&gt;\\Prismic\\Fragment\\FragmentInterface</title>
<path fill="none" stroke="black" stroke-dasharray="1,5" d="M248.678,-1622.7C239.753,-1619.45 230.875,-1614.76 224.218,-1608 127.158,-1509.48 104.099,-1333.72 98.7147,-1265.33"/>
<polygon fill="none" stroke="black" points="102.202,-1265.02 97.9936,-1255.3 95.2201,-1265.53 102.202,-1265.02"/>
</g>
<!-- \\Prismic\\Cache\\NoCache -->
<g id="node36" class="node"><title>\\Prismic\\Cache\\NoCache</title>
<polygon fill="none" stroke="black" points="696.414,-852 633.999,-852 633.999,-816 696.414,-816 696.414,-852"/>
<text text-anchor="middle" x="665.206" y="-830.7" font-family="Courier,monospace" font-size="11.00">NoCache</text>
</g>
<!-- \\Prismic\\Cache\\CacheInterface -->
<g id="node38" class="node"><title>\\Prismic\\Cache\\CacheInterface</title>
<polygon fill="none" stroke="black" points="525.281,-825 416.449,-825 416.449,-789 525.281,-789 525.281,-825"/>
<text text-anchor="middle" x="470.865" y="-803.7" font-family="Courier,monospace" font-size="11.00">CacheInterface</text>
</g>
<!-- \\Prismic\\Cache\\NoCache&#45;&gt;\\Prismic\\Cache\\CacheInterface -->
<g id="edge5" class="edge"><title>\\Prismic\\Cache\\NoCache&#45;&gt;\\Prismic\\Cache\\CacheInterface</title>
<path fill="none" stroke="black" stroke-dasharray="1,5" d="M633.729,-829.722C607.33,-826.016 568.28,-820.534 535.15,-815.884"/>
<polygon fill="none" stroke="black" points="535.468,-812.394 525.079,-814.47 534.495,-819.326 535.468,-812.394"/>
</g>
<!-- \\Prismic\\Cache\\ApcCache -->
<g id="node37" class="node"><title>\\Prismic\\Cache\\ApcCache</title>
<polygon fill="none" stroke="black" points="699.515,-798 630.898,-798 630.898,-762 699.515,-762 699.515,-798"/>
<text text-anchor="middle" x="665.206" y="-776.7" font-family="Courier,monospace" font-size="11.00">ApcCache</text>
</g>
<!-- \\Prismic\\Cache\\ApcCache&#45;&gt;\\Prismic\\Cache\\CacheInterface -->
<g id="edge31" class="edge"><title>\\Prismic\\Cache\\ApcCache&#45;&gt;\\Prismic\\Cache\\CacheInterface</title>
<path fill="none" stroke="black" stroke-dasharray="1,5" d="M630.703,-784.703C604.481,-788.384 567.249,-793.611 535.422,-798.078"/>
<polygon fill="none" stroke="black" points="534.716,-794.643 525.299,-799.499 535.689,-801.575 534.716,-794.643"/>
</g>
<!-- \\Prismic\\Predicates -->
<g id="node39" class="node"><title>\\Prismic\\Predicates</title>
<polygon fill="none" stroke="black" points="706.217,-744 624.196,-744 624.196,-708 706.217,-708 706.217,-744"/>
<text text-anchor="middle" x="665.206" y="-722.7" font-family="Courier,monospace" font-size="11.00">Predicates</text>
</g>
<!-- \\Prismic\\Api -->
<g id="node40" class="node"><title>\\Prismic\\Api</title>
<polygon fill="none" stroke="black" points="692.206,-690 638.206,-690 638.206,-654 692.206,-654 692.206,-690"/>
<text text-anchor="middle" x="665.206" y="-668.7" font-family="Courier,monospace" font-size="11.00">Api</text>
</g>
<!-- \\Prismic\\Response -->
<g id="node41" class="node"><title>\\Prismic\\Response</title>
<polygon fill="none" stroke="black" points="699.515,-636 630.898,-636 630.898,-600 699.515,-600 699.515,-636"/>
<text text-anchor="middle" x="665.206" y="-614.7" font-family="Courier,monospace" font-size="11.00">Response</text>
</g>
<!-- \\Prismic\\Experiments -->
<g id="node42" class="node"><title>\\Prismic\\Experiments</title>
<polygon fill="none" stroke="black" points="709.319,-582 621.094,-582 621.094,-546 709.319,-546 709.319,-582"/>
<text text-anchor="middle" x="665.206" y="-560.7" font-family="Courier,monospace" font-size="11.00">Experiments</text>
</g>
<!-- \\Prismic\\Experiment -->
<g id="node43" class="node"><title>\\Prismic\\Experiment</title>
<polygon fill="none" stroke="black" points="706.217,-528 624.196,-528 624.196,-492 706.217,-492 706.217,-528"/>
<text text-anchor="middle" x="665.206" y="-506.7" font-family="Courier,monospace" font-size="11.00">Experiment</text>
</g>
<!-- \\Prismic\\Variation -->
<g id="node44" class="node"><title>\\Prismic\\Variation</title>
<polygon fill="none" stroke="black" points="703.117,-474 627.296,-474 627.296,-438 703.117,-438 703.117,-474"/>
<text text-anchor="middle" x="665.206" y="-452.7" font-family="Courier,monospace" font-size="11.00">Variation</text>
</g>
<!-- \\Prismic\\SearchForm -->
<g id="node45" class="node"><title>\\Prismic\\SearchForm</title>
<polygon fill="none" stroke="black" points="706.217,-420 624.196,-420 624.196,-384 706.217,-384 706.217,-420"/>
<text text-anchor="middle" x="665.206" y="-398.7" font-family="Courier,monospace" font-size="11.00">SearchForm</text>
</g>
<!-- \\Prismic\\Ref -->
<g id="node46" class="node"><title>\\Prismic\\Ref</title>
<polygon fill="none" stroke="black" points="692.206,-366 638.206,-366 638.206,-330 692.206,-330 692.206,-366"/>
<text text-anchor="middle" x="665.206" y="-344.7" font-family="Courier,monospace" font-size="11.00">Ref</text>
</g>
<!-- \\Prismic\\ApiData -->
<g id="node47" class="node"><title>\\Prismic\\ApiData</title>
<polygon fill="none" stroke="black" points="696.414,-312 633.999,-312 633.999,-276 696.414,-276 696.414,-312"/>
<text text-anchor="middle" x="665.206" y="-290.7" font-family="Courier,monospace" font-size="11.00">ApiData</text>
</g>
<!-- \\Prismic\\LinkResolver -->
<g id="node49" class="node"><title>\\Prismic\\LinkResolver</title>
<polygon fill="none" stroke="black" points="712.92,-258 617.493,-258 617.493,-222 712.92,-222 712.92,-258"/>
<text text-anchor="start" x="632.201" y="-242.2" font-family="Courier,monospace" font-size="11.00">«abstract»</text>
<text text-anchor="start" x="625.6" y="-231.2" font-family="Courier,monospace" font-size="11.00">LinkResolver</text>
</g>
<!-- \\Prismic\\Document -->
<g id="node50" class="node"><title>\\Prismic\\Document</title>
<polygon fill="none" stroke="black" points="505.174,-2157 436.556,-2157 436.556,-2121 505.174,-2121 505.174,-2157"/>
<text text-anchor="middle" x="470.865" y="-2135.7" font-family="Courier,monospace" font-size="11.00">Document</text>
</g>
<!-- \\Prismic\\Document&#45;&gt;\\Prismic\\WithFragments -->
<g id="edge18" class="edge"><title>\\Prismic\\Document&#45;&gt;\\Prismic\\WithFragments</title>
<path fill="none" stroke="black" d="M436.403,-2139C411.65,-2139 377.258,-2139 347.754,-2139"/>
<polygon fill="none" stroke="black" points="347.546,-2135.5 337.546,-2139 347.546,-2142.5 347.546,-2135.5"/>
</g>
<!-- \\Prismic\\Form -->
<g id="node51" class="node"><title>\\Prismic\\Form</title>
<polygon fill="none" stroke="black" points="692.206,-204 638.206,-204 638.206,-168 692.206,-168 692.206,-204"/>
<text text-anchor="middle" x="665.206" y="-182.7" font-family="Courier,monospace" font-size="11.00">Form</text>
</g>
<!-- \\Prismic\\FieldForm -->
<g id="node52" class="node"><title>\\Prismic\\FieldForm</title>
<polygon fill="none" stroke="black" points="703.117,-150 627.296,-150 627.296,-114 703.117,-114 703.117,-150"/>
<text text-anchor="middle" x="665.206" y="-128.7" font-family="Courier,monospace" font-size="11.00">FieldForm</text>
</g>
<!-- \\Prismic\\SimplePredicate -->
<g id="node53" class="node"><title>\\Prismic\\SimplePredicate</title>
<polygon fill="none" stroke="black" points="722.723,-96 607.69,-96 607.69,-60 722.723,-60 722.723,-96"/>
<text text-anchor="middle" x="665.206" y="-74.7" font-family="Courier,monospace" font-size="11.00">SimplePredicate</text>
</g>
<!-- \\Prismic\\Predicate -->
<g id="node54" class="node"><title>\\Prismic\\Predicate</title>
<polygon fill="none" stroke="black" points="508.776,-96 432.955,-96 432.955,-60 508.776,-60 508.776,-96"/>
<text text-anchor="middle" x="470.865" y="-74.7" font-family="Courier,monospace" font-size="11.00">Predicate</text>
</g>
<!-- \\Prismic\\SimplePredicate&#45;&gt;\\Prismic\\Predicate -->
<g id="edge29" class="edge"><title>\\Prismic\\SimplePredicate&#45;&gt;\\Prismic\\Predicate</title>
<path fill="none" stroke="black" stroke-dasharray="1,5" d="M607.538,-78C579.364,-78 545.715,-78 518.977,-78"/>
<polygon fill="none" stroke="black" points="518.723,-74.5001 508.723,-78 518.723,-81.5001 518.723,-74.5001"/>
</g>
</g>
</svg>
